<svg width="1268" height="1268" viewBox="0 0 1268 1268" fill="#ffffff" xmlns="http://www.w3.org/2000/svg">
<path d="M598 2.13319C586.4 2.79985 572.533 3.86652 567.333 4.66652C562.267 5.46652 552 6.93319 544.667 7.99985C496 14.6665 429.733 32.6665 392.667 49.3332C390.533 50.2665 384.8 52.6665 380 54.6665C351.2 66.5332 310.4 89.3332 272.667 114.533C213.467 154 153.467 214.133 110.533 276.667C82.8 317.333 58.1333 364.8 41.3333 410C39.3333 415.467 36.2667 423.6 34.6667 427.867C32.9333 432.267 30.8 438.8 29.7333 442.533C28.6667 446.267 26.9333 452 26 455.333C-7.73333 570.133 -8.26666 694.667 24.4 809.333C29.6 827.333 41.0667 859.733 50.1333 881.867C57.7333 900.133 78.8 941.467 89.8667 960C105.2 985.333 111.6 994.667 133.867 1024.13C154.267 1051.2 188.8 1087.47 217.733 1112.27C225.2 1118.67 231.6 1124.27 232 1124.67C234.667 1127.6 267.067 1151.33 278 1158.4C281.733 1160.67 288.267 1165.07 292.667 1168C304.667 1176.27 336.8 1194.27 353.333 1202.13C368.667 1209.47 396.533 1221.6 402.667 1223.73C406 1224.93 412.933 1227.47 418 1229.33C426.267 1232.53 435.333 1235.47 454.667 1241.33C462.267 1243.6 484 1249.2 498.667 1252.53C551.6 1264.67 622.667 1270 679.733 1266C704.933 1264.13 752.133 1257.47 768 1253.33C772 1252.27 782 1249.87 790 1247.87C840.133 1236 894.667 1214.67 942.533 1188.13C948.667 1184.8 954 1182 954.4 1182C954.8 1182 957.333 1180.53 959.867 1178.93C962.533 1177.2 968 1173.73 972 1171.07C1018.4 1141.6 1046.27 1119.6 1082 1084C1108.4 1058 1116.53 1048.67 1142.4 1015.33C1152 1002.93 1182.67 955.6 1182.67 952.933C1182.67 952.4 1184.53 949.333 1186.67 946.267C1194 935.467 1219.6 881.067 1224.8 865.333C1228.13 855.333 1230.8 848 1232 845.333C1234.8 839.6 1248 793.067 1252.8 772C1257.6 750.8 1264.8 699.733 1266.4 674.667C1270.8 609.067 1260.53 515.067 1243.2 460.933C1242.13 457.733 1240.67 452.4 1240 449.2C1238.27 441.867 1223.6 400 1219.33 390.667C1217.73 386.933 1214.4 379.467 1212 374C1205.47 359.467 1186 321.467 1179.33 310.667C1153.47 268.133 1132.4 239.6 1103.6 208C1089.87 193.067 1061.73 165.333 1053.07 158.267C1051.6 157.067 1046.27 152.667 1041.47 148.667C1014.8 126.4 998.667 114.8 962.4 92.1332C941.733 79.0665 897.733 57.0665 875.333 48.3999C872.4 47.1999 865.867 44.5332 860.667 42.2665C830.4 29.4665 762.667 12.2665 723.467 7.33319C716.8 6.53319 711.067 5.59985 710.533 5.19985C710 4.93319 696.8 3.73319 681.2 2.66652C650.667 0.533186 631.867 0.399853 598 2.13319ZM759.2 168.133C763.867 170 775.467 188.933 791.6 221.333C796.4 230.8 802.667 242.667 805.467 247.467L810.8 256.267L822.4 257.867C841.733 260.533 862.8 265.733 871.333 270C880.533 274.533 893.067 286.533 946.533 341.467C986.533 382.667 987.467 384.133 992.133 410C994.8 425.467 995.467 451.6 993.333 466C992.667 470.933 991.467 480.267 990.667 486.933C986.533 524 971.733 568.933 956.933 589.6C954.667 592.933 951.333 597.733 949.6 600.133C945.733 606 942.667 606.133 942.667 600.267C942.667 590.4 938.533 569.6 933.333 554C924 525.333 910.933 502.533 893.2 483.867C881.867 471.733 882.4 472.133 867.467 471.2C854.267 470.533 843.6 467.333 824.4 458.533C822.133 457.467 819.733 456.667 819.2 456.667C818.533 456.667 785.467 489.467 745.6 529.6L673.2 602.533L649.867 579.333C637.067 566.533 624.667 553.733 622.4 550.933L618.267 545.867L626.8 537.467C640.667 524 730.533 431.867 757.867 403.333L769.6 390.933L769.467 378.133C769.333 360.133 766.8 339.6 764.133 333.333C760.4 324.667 754.267 319.467 740 312.533C728.267 306.8 707.333 297.867 701.867 296.267C685.333 291.2 668.933 284.533 666.667 281.733C662.4 276.667 663.333 270 668.933 262.533C671.6 258.933 674.267 255.733 674.667 255.333C675.067 254.933 680.8 248.4 687.333 240.667C693.867 232.933 699.867 226 700.667 225.2C701.333 224.267 707.467 217.2 714 209.2C720.667 201.333 729.733 190.667 734.4 185.467C738.933 180.4 742.667 175.733 742.667 175.2C742.667 173.467 752.4 167.333 754.933 167.333C756.133 167.333 758 167.733 759.2 168.133ZM378.533 328C398.133 337.867 408.667 347.867 418.267 366C429.2 386.533 430.8 413.867 422.133 432.8L418.8 439.867L424.267 445.867C431.067 453.467 508.267 532.533 519.733 543.733C524.267 548.133 528 552.133 528 552.667C528 553.867 470.8 610.667 466.933 613.467C465.2 614.667 463.467 615.2 462.933 614.667C451.467 603.067 352.533 506.4 351.333 505.733C350.4 505.2 344.4 505.467 337.867 506.267C319.067 508.667 294.933 503.867 279.733 494.8C259.067 482.533 245.067 457.067 245.067 431.867C245.067 405.867 255.733 382 275.6 364.133L282.4 358L283.067 363.067C284.267 371.2 288.933 392.133 293.867 411.733C298.133 428.133 302.267 438 305.2 438C305.733 438 309.733 435.867 314.133 433.2C318.4 430.533 324.133 427.067 326.667 425.467C329.2 424 335.867 419.467 341.333 415.6C346.8 411.6 355.733 406 361.2 402.933C366.533 400 372.4 396.267 374.133 394.8L377.2 392L373.333 381.333C371.333 375.467 367.333 365.6 364.667 359.333C357.2 342.133 352.533 330.933 351.467 327.733C350.533 324.667 351.2 324.533 365.733 323.6C367.733 323.467 373.467 325.467 378.533 328ZM590.667 535.6C598.667 538 607.467 543.333 609.6 547.067C610.8 549.067 627.333 566.267 646.4 585.333C679.333 618.4 681.067 620.267 682.533 626.933C685.733 640.267 686.533 639.2 628.667 696.667C611.333 713.867 569.2 757.2 541.333 786.4C535.867 792.133 527.733 800.533 523.333 805.067C518.933 809.6 501.6 828 484.8 846C468 864 449.067 884.133 442.8 890.8C436.533 897.467 428 906.8 424 911.333C420 916 413.867 922.8 410.533 926.533C407.2 930.267 400.667 937.867 396 943.333C391.333 948.8 387.2 953.6 386.8 954C386.267 954.4 380.267 961.2 373.333 969.067C345.6 1000.8 327.867 1010.67 298.667 1010.67C277.333 1010.67 265.467 1006 246.533 990.4C231.333 978 221.067 962.933 214.533 944C210 930.8 209.867 905.333 214.267 893.2C222.4 870.533 234.267 853.467 254.8 834.8C258.8 831.2 274.4 816.267 289.733 801.6C314.8 777.333 317.333 774.4 317.333 770.4C317.333 766.133 318.933 764.667 320.667 767.467C321.2 768.133 322.133 768.667 322.667 768.4C323.333 768.133 339.333 752.933 358.267 734.667C377.067 716.267 401.6 692.667 412.533 682C432.4 662.8 502.667 593.733 534.533 562C554.8 541.867 559.467 538.267 569.2 535.2C576.667 532.8 582 532.933 590.667 535.6ZM277.2 595.2C287.733 596.933 294.933 600.4 305.6 608.8C317.2 618 367.6 666.933 379.733 680.667L389.6 692L376.533 704.267C369.2 711.067 362.933 716.667 362.4 716.667C362 716.667 360.8 714.533 360 712C358.933 708.933 351.467 700.267 337.6 686C319.6 667.6 316 664.533 311.733 663.733C308.267 663.2 305.733 663.6 303.333 665.2C297.6 668.933 299.333 675.2 307.733 682.533C310.533 684.8 316 690 320 694C330.533 704.4 340.933 712.933 348.4 717.2C352 719.333 354.667 721.733 354.667 723.067C354.667 725.467 338 743.067 336.8 741.867C288.933 694.8 261.2 670.933 257.067 673.467C256.267 674 256 673.867 256.533 672.933C256.933 672.133 256.8 671.2 256 670.667C255.2 670.267 254.667 671.2 254.667 672.933C254.533 675.867 254.4 675.733 250.267 671.333C247.867 668.8 244.667 665.733 243.2 664.667C241.867 663.6 242.667 664.933 245.067 667.467C247.467 670 248.933 672.8 248.4 673.467C247.733 674.133 247.867 674.267 248.533 673.6C250.133 672.4 256.133 678 255.067 679.733C254.667 680.533 254.933 680.667 255.733 680.133C256.667 679.6 257.333 680 257.333 681.333C257.333 682.533 257.867 683.2 258.533 682.667C259.333 682.267 262.4 685.067 265.6 688.933C271.2 695.867 277.067 701.6 311.067 733.2C320.4 741.867 328 749.333 328 749.867C328 750.8 320.8 758.667 315.067 763.867C310.8 767.733 310.667 767.733 308 765.333C306.533 764 305.733 762.533 306 762C307.067 760.267 266.267 720.533 259.2 716.267C257.733 715.467 257.333 716.267 257.333 719.467C257.333 723.2 257.067 723.467 255.067 721.867C253.067 720.133 252.933 720.4 253.867 724C256.533 735.067 262.267 741.067 286.667 758.533C292.133 762.533 298.8 767.6 301.333 769.733L306 773.867L298 781.6C293.6 785.867 287.067 792 283.6 795.2L277.2 801.067L264.267 788.533C257.2 781.6 241.733 767.2 230.133 756.667C201.467 730.533 193.067 720.667 188.8 707.6C185.6 697.733 182.533 678.133 180 651.733C178.8 638.533 179.867 630.8 183.733 624.933C188.133 617.867 188.933 617.6 191.867 622.4C194.667 627.067 201.333 633.867 201.333 632.133C201.333 631.467 202.267 631.733 203.333 632.667C204.4 633.6 205.333 635.067 205.333 635.867C205.333 636.667 204.4 636.133 203.333 634.8C202.267 633.333 201.333 632.8 201.333 633.467C201.333 635.6 204.133 637.867 205.867 637.2C206.8 636.8 208.667 637.733 210 639.333C211.333 640.8 212.933 642 213.733 642C214.4 642 220.667 646.933 227.867 652.933C234.933 658.933 238.933 661.867 236.8 659.6C234.8 657.467 233.467 654.933 233.867 654.133C234.533 653.2 234 653.067 232.533 653.6C231.067 654.133 230.533 653.867 230.933 652.667C231.2 651.733 227.6 647.2 222.8 642.8C209.6 630.533 209.067 629.867 202.267 621.867C198.8 617.733 196 613.733 196 613.067C196 612.267 201.067 609.2 207.2 606.133C225.867 596.933 257.067 592 277.2 595.2ZM1020 626.133C1030.93 627.867 1044.8 635.067 1054.67 644.267C1060.53 649.733 1063.33 653.6 1066.8 661.6L1071.33 672V701.733V731.467L1038.13 731.333C1011.33 731.333 1004.27 730.8 1001.2 729.2C997.333 727.2 994.267 722 992.8 715.067C991.067 707.067 992.133 707.2 940.933 707.6L894 708L891.067 714C889.333 717.333 888 721.2 888 722.8C888 724.267 887.2 726.667 886.133 728.133C884.4 730.4 881.867 730.667 852.533 731.333L820.933 732L818.667 738.533C817.467 742.267 815.867 745.333 815.2 745.6C814.533 745.867 807.733 739.733 800.133 732.133C787.067 719.067 786.533 718.133 789.2 716.8C791.867 715.333 792 714.267 792 693.6C792 666.667 793.867 659.333 804 646.667C810.667 638.267 827.2 628.133 837.867 626C845.867 624.4 1009.47 624.533 1020 626.133ZM697.733 708.267C715.467 725.733 731.333 741.467 733.2 743.333C735.067 745.2 750.133 760.667 766.667 777.733L796.533 808.667H830.933H865.333V846.933C865.333 868.133 865.467 906.933 865.733 933.333L866 981.333L894.4 981.733L922.8 982L922.667 895.733L922.533 809.333L940.533 808.933L958.667 808.533V895.333V982H988H1017.33L1017.6 895.6L1018 809.333L1047.07 808.933L1076.13 808.667L1075.73 902.533L1075.33 996.267L1069.6 1007.73C1066.4 1014 1061.73 1020.93 1059.2 1023.33C1051.47 1030.27 1040 1037.73 1032.13 1040.93C1024.67 1044 1024.4 1044 940.667 1044.4C880.667 1044.67 854.4 1044.4 848.667 1043.33C840.533 1041.73 826.933 1035.47 818.667 1029.33C809.733 1022.93 565.333 781.333 565.333 778.933C565.333 776.533 573.867 765.6 583.6 755.733C626.267 712.133 662.267 676.667 663.867 676.667C664.8 676.667 680.133 690.933 697.733 708.267ZM986 720.267C987.733 726 992.267 733.467 995.733 736.267C997.333 737.6 1006.4 738 1031.07 738C1049.87 738 1065.2 738.533 1066.53 739.333C1071.6 742 1073.07 749.6 1073.33 773.467C1073.47 785.867 1073.47 797.333 1073.47 799.067L1073.33 802L945.733 801.733L818 801.333L818.4 798.267C818.8 795.2 818.667 795.2 811.067 796C801.6 797.2 800.267 798 808 798C813.2 798 813.6 798.267 812 800C810.933 801.067 807.467 802.267 804.533 802.8C799.333 803.6 798.667 803.333 794.267 798.533C791.6 795.6 779.6 783.067 767.467 770.667C755.333 758.133 745.333 747.733 745.333 747.333C745.333 746 754.8 740.533 758.4 739.867C761.6 739.2 764 741.2 781.733 759.333C800.667 778.933 804.667 784.533 801.467 787.733C799.733 789.467 799.6 791.333 801.2 791.333C801.867 791.333 802.8 789.867 803.2 788C803.733 786.133 804.933 784.667 806 784.667C807.067 784.667 808.267 786.133 808.8 788C809.867 792.4 812 792.267 812 787.6C812 785.6 813.867 780.933 816 777.333C820.667 769.6 821.333 759.6 817.867 752.267L815.733 747.733L820.8 742.933L826 738.133L852.667 737.867C892.667 737.6 893.333 737.467 893.333 732.933C893.333 729.2 895.867 721.467 898.133 718.667C900 716.133 902.133 716 941.067 715.333C963.6 714.933 982.533 714.667 983.2 714.667C983.867 714.8 985.2 717.333 986 720.267ZM787.867 727.867C795.333 734.133 803.2 742.533 809.6 751.2C816.4 760.133 816.8 766.267 811.467 773.333C808.4 777.2 807.467 777.733 805.333 776.667C804 775.867 802 774.267 801.067 772.8C800.133 771.467 795.6 766.267 791.2 761.2C771.733 739.467 768 734.933 768 733.333C768 731.333 771.333 728.4 776.667 725.6C782 722.8 781.6 722.667 787.867 727.867ZM575.2 866.133C578.933 870 592.133 884.133 604.667 897.333C617.333 910.533 631.333 925.467 636.133 930.667C640.8 935.733 645.733 940.933 647.067 942C648.4 943.067 650 946.4 650.667 949.333C652 955.2 650.533 969.333 648 973.867C643.2 982.933 636.4 991.2 621.467 1006.13C608.8 1018.67 602.533 1023.87 596.133 1027.07C586.267 1032 585.6 1032 576.267 1029.33C568 1026.8 561.2 1021.2 541.2 1000C532.933 991.2 512.533 969.867 495.867 952.667C479.2 935.467 462.667 917.867 459.2 913.6L452.8 905.733L461.333 898C467.733 892 470.267 890.4 471.867 891.333C473.067 892 477.867 896.4 482.667 901.2C492.8 911.467 498.133 912.667 500.533 905.2C501.6 901.867 496.933 895.067 486.8 885.2L479.733 878.267L488.8 869.6L497.867 860.933L506.667 868.933C523.867 884.933 533.867 890.533 536.667 885.867C538.667 882.8 535.467 878 522.133 863.333C514.4 854.933 508 847.6 508 846.933C508 845.867 512.667 840.4 523.867 828.267L531.2 820.533L549.867 839.733C560.267 850.133 571.6 862.133 575.2 866.133ZM655.067 1001.2C657.467 1004 663.867 1012.8 669.333 1020.53C674.8 1028.4 680.933 1036.8 682.933 1039.33C684.933 1041.87 691.467 1050.53 697.467 1058.67C703.467 1066.67 710.8 1076.13 713.867 1079.6C716.933 1082.93 720.8 1087.47 722.667 1089.6C724.533 1091.6 727.333 1094.27 728.933 1095.33L732 1097.33L727.867 1105.33C725.733 1109.73 723.333 1113.73 722.8 1114.4C722.267 1114.93 718 1112.4 713.2 1108.67C697.733 1096.53 680.8 1084 670.267 1076.53C664.533 1072.53 657.333 1067.6 654.267 1065.33C651.2 1063.2 642.4 1056.4 634.667 1050.27C618.4 1037.47 614.933 1034.67 611.6 1032.27C609.467 1030.8 609.333 1030.13 610.8 1026.8C611.733 1024.8 614.667 1022 617.333 1020.67C623.067 1017.73 628.4 1012.53 633.733 1004.67C635.867 1001.33 639.6 996.667 641.867 994.267L646 989.867L648.4 992.933C649.733 994.667 652.667 998.267 655.067 1001.2Z" fill="#ffffff"/>
<path d="M285.733 880.933C277.467 884.133 271.067 890 266 898.933C263.067 904 262.133 907.467 261.6 916.133C260.8 929.867 263.333 938 271.067 946.8C279.067 956 288.4 959.867 302 959.867C318 959.867 327.467 955.067 336 942.667C341.067 935.2 342.933 928.667 342.8 918.4C342.667 902.267 332.667 887.333 317.467 880.533C309.6 877.067 295.067 877.2 285.733 880.933Z" fill="#0F172A"/>
<path d="M212.533 647.067C214 648.667 215.333 649.733 215.733 649.333C216.133 648.933 217.733 649.733 219.2 650.933C221.2 652.667 221.067 652.267 218.8 649.6C216.933 647.6 215.2 646.267 214.933 646.667C214.533 647.067 213.333 646.533 212.133 645.733C210.8 644.667 210.933 645.2 212.533 647.067Z" fill="#ffffff"/>
<path d="M222.667 654.533C222.667 654.8 224.267 656.133 226.4 657.333L230 659.733L227.467 656.933C225.2 654.267 222.667 653.067 222.667 654.533Z" fill="#0F172A"/>
<path d="M238.933 658.267C239.867 659.2 241.867 660.933 243.333 662C245.333 663.333 245.2 662.933 242.8 660.267C240.933 658.267 238.933 656.667 238.4 656.667C237.733 656.667 238 657.467 238.933 658.267Z" fill="#ffffff"/>
<path d="M230.667 659.867C230.667 660.133 231.733 661.2 233.067 662.133C235.067 663.867 235.2 663.733 233.467 661.6C231.733 659.467 230.667 658.8 230.667 659.867Z" fill="#0F172A"/>
<path d="M798.667 718.533C798.667 720.8 804.8 726.933 808.267 728.133C810 728.667 811.467 728.267 812.133 727.2C813.867 724.533 813.733 724.4 807.867 720.267C802.133 716.4 798.667 715.6 798.667 718.533Z" fill="#ffffff"/>
<path d="M656.533 751.333C637.2 758.933 630.667 775.6 641.067 790.667C646.133 798.133 737.067 887.867 742.267 890.533C748 893.333 755.733 893.2 760.8 890.133C767.6 886 774.667 878.133 777.6 871.467C779.867 866.133 780 864.533 778.667 858.4C777.867 854.667 775.467 848.933 773.2 845.6C768.8 838.933 688.8 758.667 681.067 753.2C674.4 748.4 665.6 747.733 656.533 751.333Z" fill="#0F172A"/>
</svg>
